<?xml version="1.0" encoding="UTF-8"?>
<svg id="Layer_2" data-name="Layer 2" xmlns="http://www.w3.org/2000/svg" viewBox="0 0 384 384.75">
  <g id="Layer_1-2" data-name="Layer 1">
    <path d="M195.75,384.75c-6.2-1.93-10.57-6.35-15.02-10.78-29.48-29.34-59.05-58.59-88.56-87.89-4.71-4.68-9.31-9.47-10.66-16.37-.11-.57-.5-1.19-.95-1.56-5.57-4.58-7.41-11.07-9.15-17.63-11.28-42.62-22.56-85.24-33.86-127.85-4.9-18.47-9.93-36.91-14.74-55.4-4.24-16.31,2.64-27.51,19.02-31.84C83.98,24.27,126.08,13.01,168.2,1.78c.96-.26,1.87-.68,2.8-1.03h11.25c9.34,3.41,15.52,9.55,17.75,19.55,1.66,7.43,3.84,14.75,5.82,22.11,1.19,4.44,2.45,8.87,3.74,13.52,7.76,2.13,15.32,4.22,22.89,6.28,19.53,5.32,39.07,10.59,58.58,15.98,12.68,3.5,19.87,15.83,16.64,28.97-2.8,11.4-5.94,22.73-9.15,34.02-.86,3.04-.4,5.14,1.85,7.36,11.82,11.68,23.57,23.44,35.26,35.26,7.47,7.55,14.8,15.22,22.17,22.86,8.33,8.64,8.36,22.21-.09,30.78-10.88,11.03-21.89,21.94-32.85,32.9-34.91,34.91-69.76,69.87-104.79,104.64-3.83,3.8-8.69,6.55-13.07,9.79h-11.25Zm43.48-170c-.2-.99-.49-2.97-1-4.89-16.62-62.55-33.27-125.09-49.88-187.64-2.43-9.16-7.93-12.34-17.07-9.89-22.93,6.15-45.87,12.23-68.81,18.34-19.8,5.27-39.61,10.49-59.4,15.81-8.63,2.32-12.01,8.72-9.19,17.03,.4,1.18,.77,2.38,1.09,3.59,6.82,25.72,13.63,51.45,20.45,77.17,9.58,36.11,19.16,72.22,28.81,108.31,.43,1.62,1.32,3.26,2.39,4.56,3.46,4.2,7.86,5.26,13.13,3.85,33.44-8.92,66.9-17.76,100.35-26.64,9.78-2.6,19.56-5.22,29.32-7.89,6.38-1.74,9.75-5.49,9.81-11.72Zm-135.27,66.11c-.12,.28-.23,.57-.35,.85,3.46,3.22,7.02,6.34,10.36,9.68,25.49,25.41,50.93,50.87,76.4,76.31,7.71,7.7,13.51,7.74,21.13,.12,45.42-45.42,90.85-90.84,136.27-136.27,7.17-7.18,7.15-11.87,.02-19.08-17.03-17.24-34.04-34.51-51.07-51.76-.65-.66-1.47-1.14-2.73-2.1-1.36,4.82-2.61,9.1-3.76,13.4-10.85,40.3-21.66,80.6-32.55,120.89-1.07,3.96-2.09,8.09-4.07,11.62-5.28,9.41-15.65,12.81-28.25,9.41-31-8.36-61.95-16.9-92.93-25.36-9.49-2.59-18.98-5.14-28.47-7.71ZM213.01,69.13c3.38,12.83,6.47,24.66,9.61,36.47,9.07,34.18,18.27,68.32,27.2,102.53,3.61,13.82-3.81,26.03-17.57,29.7-36.7,9.78-73.43,19.49-110.14,29.25-3.51,.93-6.99,1.96-11.45,3.22,2.23,.7,3.4,1.12,4.59,1.44,38.08,10.41,76.16,20.85,114.26,31.2,8.63,2.34,13.52-.77,15.85-9.48,6.4-23.9,12.86-47.78,19.3-71.66,10.55-39.08,21.13-78.16,31.62-117.26,2.15-8-.96-13.05-8.99-15.24-16.27-4.45-32.54-8.9-48.82-13.32-8.16-2.22-16.33-4.39-25.48-6.84Z"/>
  </g>
</svg>