<?xml version="1.0" encoding="UTF-8"?>
<svg id="Layer_2" data-name="Layer 2" xmlns="http://www.w3.org/2000/svg" viewBox="0 0 384 384">
  <defs>
    <style>
      .cls-1 {
        fill: #fff;
      }
    </style>
  </defs>
  <g id="Layer_1-2" data-name="Layer 1">
    <g>
      <path class="cls-1" d="M180,0C248,0,316,0,384,0V384H204c6.28-1.62,10.98-5.55,15.41-10.09,10.04-10.27,20.28-20.36,30.44-30.52,34.9-34.9,69.85-69.74,104.6-104.78,3.23-3.25,6.11-7.45,7.55-11.75,2.97-8.85-.63-16.26-6.98-22.65-18.76-18.88-37.4-37.87-56.21-56.7-2.06-2.06-2.45-3.81-1.67-6.53,3.11-10.91,6.01-21.89,8.93-32.86,4.03-15.14-2.77-26.83-17.78-30.89-25.65-6.93-51.26-13.96-76.92-20.85-2.23-.6-3.26-1.57-3.84-3.84-2.85-11.25-5.93-22.43-8.87-33.65-2.49-9.47-8.05-15.89-17.78-18.29-.33-.08-.59-.4-.89-.61Z"/>
      <path class="cls-1" d="M196.5,384H0V0C57.25,0,114.5,0,171.75,0c-.53,.26-1.04,.61-1.6,.76C126.76,12.3,83.37,23.82,39.98,35.35c-14.38,3.82-21.68,15.34-18.02,29.18,16.78,63.42,33.62,126.82,50.71,190.16,1.14,4.23,4.48,7.88,6.81,11.78,.62,1.04,1.67,1.96,1.89,3.06,1.11,5.55,4.48,9.72,8.27,13.5,30,29.9,60.11,59.67,90.1,89.58,4.91,4.89,9.92,9.42,16.75,11.38Z"/>
      <path d="M196.5,384c-6.83-1.96-11.84-6.49-16.75-11.38-29.99-29.91-60.1-59.68-90.1-89.58-3.79-3.78-7.16-7.95-8.27-13.5-.22-1.1-1.28-2.03-1.89-3.06-2.33-3.91-5.67-7.55-6.81-11.78-17.09-63.34-33.93-126.74-50.71-190.16-3.66-13.84,3.64-25.36,18.02-29.18C83.37,23.82,126.76,12.3,170.15,.76c.56-.15,1.07-.5,1.6-.76,2.75,0,5.5,0,8.25,0,.29,.21,.56,.53,.89,.61,9.74,2.4,15.3,8.82,17.78,18.29,2.95,11.22,6.03,22.4,8.87,33.65,.57,2.27,1.61,3.24,3.84,3.84,25.66,6.89,51.27,13.92,76.92,20.85,15.01,4.06,21.81,15.75,17.78,30.89-2.92,10.97-5.82,21.94-8.93,32.86-.78,2.72-.39,4.46,1.67,6.53,18.81,18.83,37.45,37.82,56.21,56.7,6.35,6.39,9.95,13.8,6.98,22.65-1.44,4.3-4.32,8.5-7.55,11.75-34.75,35.04-69.71,69.89-104.6,104.78-10.16,10.16-20.4,20.24-30.44,30.52-4.44,4.54-9.13,8.47-15.41,10.09h-7.5Zm-100.68-122.78c.65-.14,2.12-.38,3.56-.76,35.59-9.41,71.17-18.83,106.75-28.27,7.84-2.08,15.7-4.09,23.49-6.35,7.36-2.14,10.68-7.48,8.95-13.99-16.94-63.8-33.89-127.6-50.87-191.39-2.23-8.38-7.87-11.68-16.08-9.5-42.45,11.26-84.9,22.53-127.34,33.84-11.32,3.02-14.18,7.98-11.26,18.92,6.76,25.32,13.48,50.65,20.21,75.98,9.83,37.03,19.64,74.06,29.47,111.09,1.85,6.97,6.01,10.48,13.12,10.44Zm6.49,18.27l-1.02,1.32c1.22,.84,2.59,1.52,3.62,2.54,28.32,28.05,56.61,56.14,84.91,84.23,7.58,7.52,13.33,7.52,20.85,.01,45.87-45.86,91.73-91.73,137.6-137.59,6.01-6.01,6.01-11.41-.01-17.51-17.39-17.6-34.79-35.2-52.19-52.79-.84-.85-1.74-1.63-2.99-2.78-.53,1.79-.93,3.05-1.28,4.33-12.25,45.41-24.5,90.82-36.73,136.23-2.46,9.15-8.38,14.87-17.6,16.18-4.52,.64-9.49-.06-13.97-1.26-36.03-9.66-71.99-19.59-107.97-29.42-4.4-1.2-8.81-2.33-13.22-3.49ZM211.76,67.8c.42,1.81,.65,2.9,.94,3.97,11.9,44.87,23.55,89.8,35.83,134.56,4.36,15.91-6.17,27.67-17.97,30.72-31.28,8.09-62.49,16.49-93.72,24.79-9.26,2.46-18.51,4.97-28.68,7.69,2.09,.63,3.24,1.02,4.41,1.33,18.65,5.1,37.31,10.19,55.96,15.28,19.98,5.45,39.96,10.91,59.95,16.33,9.05,2.45,14.07-.44,16.52-9.47,4.5-16.62,8.96-33.25,13.44-49.87,12.57-46.62,25.14-93.24,37.71-139.86,1.83-6.79-1.27-12.51-7.92-14.73-.71-.24-1.43-.45-2.15-.65-15.65-4.26-31.3-8.52-46.95-12.77-8.89-2.41-17.8-4.78-27.35-7.34Z"/>
      <path class="cls-1" d="M95.82,261.22c-7.11,.04-11.27-3.47-13.12-10.44-9.83-37.03-19.64-74.06-29.47-111.09-6.72-25.33-13.45-50.66-20.21-75.98-2.92-10.94-.06-15.9,11.26-18.92,42.44-11.31,84.89-22.58,127.34-33.84,8.22-2.18,13.85,1.12,16.08,9.5,16.98,63.79,33.93,127.59,50.87,191.39,1.73,6.51-1.6,11.85-8.95,13.99-7.78,2.27-15.65,4.28-23.49,6.35-35.58,9.43-71.16,18.85-106.75,28.27-1.44,.38-2.92,.63-3.56,.76Z"/>
      <path class="cls-1" d="M102.31,279.49c4.41,1.16,8.82,2.29,13.22,3.49,35.98,9.83,71.94,19.76,107.97,29.42,4.47,1.2,9.45,1.9,13.97,1.26,9.22-1.31,15.14-7.03,17.6-16.18,12.22-45.42,24.48-90.82,36.73-136.23,.35-1.28,.75-2.54,1.28-4.33,1.25,1.16,2.15,1.93,2.99,2.78,17.4,17.59,34.8,35.19,52.19,52.79,6.03,6.1,6.02,11.5,.01,17.51-45.87,45.86-91.73,91.73-137.6,137.59-7.51,7.51-13.27,7.51-20.85-.01-28.3-28.08-56.59-56.17-84.91-84.23-1.03-1.02-2.41-1.7-3.62-2.54l1.02-1.32Z"/>
      <path class="cls-1" d="M211.76,67.8c9.56,2.56,18.46,4.93,27.35,7.34,15.65,4.24,31.3,8.51,46.95,12.77,.72,.2,1.44,.41,2.15,.65,6.65,2.22,9.75,7.93,7.92,14.73-12.56,46.62-25.14,93.24-37.71,139.86-4.48,16.62-8.94,33.25-13.44,49.87-2.44,9.02-7.46,11.92-16.52,9.47-19.99-5.42-39.97-10.88-59.95-16.33-18.66-5.09-37.31-10.18-55.96-15.28-1.17-.32-2.32-.7-4.41-1.33,10.17-2.73,19.42-5.23,28.68-7.69,31.23-8.29,62.43-16.7,93.72-24.79,11.8-3.05,22.34-14.81,17.97-30.72-12.27-44.76-23.93-89.69-35.83-134.56-.28-1.07-.51-2.16-.94-3.97Z"/>
    </g>
  </g>
</svg>