<?xml version="1.0" encoding="UTF-8"?>
<svg id="Layer_2" data-name="Layer 2" xmlns="http://www.w3.org/2000/svg" viewBox="0 0 384 384">
  <defs>
    <style>
      .cls-1 {
        fill: #fff;
      }
    </style>
  </defs>
  <g id="Layer_1-2" data-name="Layer 1">
    <g>
      <path class="cls-1" d="M384,384H0V0H384V384ZM95.48,261.02c.35-.05,1.48-.13,2.55-.41,43.84-11.6,87.68-23.2,131.5-34.84,7.59-2.02,10.58-7.48,8.56-15.1-10.87-41.05-21.71-82.12-32.6-123.17-5.95-22.43-11.95-44.85-17.94-67.27-2.09-7.81-7.79-11.2-15.54-9.16-18.12,4.76-36.24,9.54-54.35,14.35-25.18,6.7-50.36,13.4-75.53,20.18-6.62,1.78-11.05,7.04-10.6,12.68,.17,2.1,1.4,4.1,1.96,6.19,6.84,25.67,13.63,51.36,20.45,77.03,9.75,36.73,19.51,73.46,29.27,110.19,1.58,5.94,5.73,9.28,12.27,9.34Zm197.88-103.39c-.24,.48-.61,.98-.76,1.54-2.56,9.34-5.1,18.69-7.62,28.04-9.98,36.94-19.96,73.87-29.91,110.81-1.54,5.72-4.78,10.06-9.84,13.11-6.48,3.91-13.33,3.68-20.28,1.8-26.59-7.21-53.16-14.49-79.74-21.72-14.25-3.87-28.51-7.69-42.77-11.53-.38,.44-.77,.87-1.15,1.31,1.18,.66,2.58,1.1,3.51,2.02,28.69,28.41,57.33,56.87,85.98,85.31,6.42,6.37,12.69,6.32,19.18-.17,46.15-46.13,92.29-92.27,138.43-138.4,5.82-5.81,5.77-11.23-.09-17.16-9.84-9.96-19.62-19.97-29.51-29.88-8.38-8.39-16.88-16.65-25.43-25.08Zm-81.14-89.61c.19,1.19,.24,1.9,.41,2.57,4.54,17.17,9.09,34.33,13.65,51.49,7.47,28.09,14.95,56.19,22.45,84.28,3.8,14.26-3.44,26.79-17.64,30.56-22.7,6.03-45.4,12.08-68.1,18.13-17.86,4.76-35.71,9.54-54.39,14.54,12.49,3.39,24.18,6.55,35.86,9.74,28.24,7.72,56.48,15.48,84.73,23.17,8.2,2.23,13.33-.78,15.52-8.9,17.04-63.22,34.08-126.43,51.11-189.65,2.18-8.08-.77-13.43-8.82-15.64-14.62-4.02-29.28-7.93-43.91-11.89-10.14-2.75-20.28-5.51-30.87-8.39Z"/>
      <path d="M95.48,261.02c-6.53-.05-10.69-3.4-12.27-9.34-9.76-36.73-19.52-73.46-29.27-110.19-6.82-25.68-13.61-51.36-20.45-77.03-.56-2.09-1.79-4.09-1.96-6.19-.46-5.64,3.98-10.89,10.6-12.68,25.16-6.77,50.34-13.48,75.53-20.18,18.11-4.82,36.23-9.59,54.35-14.35,7.75-2.04,13.46,1.35,15.54,9.16,5.99,22.42,11.99,44.84,17.94,67.27,10.88,41.05,21.73,82.11,32.6,123.17,2.02,7.62-.97,13.08-8.56,15.1-43.83,11.65-87.66,23.25-131.5,34.84-1.07,.28-2.2,.36-2.55,.41Z"/>
      <path d="M293.37,157.63c8.55,8.42,17.05,16.69,25.43,25.08,9.89,9.91,19.68,19.92,29.51,29.88,5.86,5.94,5.91,11.35,.09,17.16-46.14,46.14-92.28,92.27-138.43,138.4-6.49,6.49-12.76,6.54-19.18,.17-28.65-28.45-57.29-56.9-85.98-85.31-.93-.92-2.33-1.36-3.51-2.02,.38-.44,.77-.87,1.15-1.31,14.26,3.84,28.52,7.66,42.77,11.53,26.58,7.23,53.15,14.51,79.74,21.72,6.95,1.88,13.8,2.12,20.28-1.8,5.06-3.05,8.3-7.39,9.84-13.11,9.94-36.94,19.93-73.88,29.91-110.81,2.53-9.35,5.07-18.7,7.62-28.04,.15-.56,.52-1.06,.76-1.54Z"/>
      <path d="M212.23,68.02c10.59,2.88,20.72,5.65,30.87,8.39,14.64,3.97,29.29,7.87,43.91,11.89,8.04,2.21,10.99,7.56,8.82,15.64-17.03,63.22-34.07,126.44-51.11,189.65-2.19,8.12-7.31,11.14-15.52,8.9-28.25-7.69-56.49-15.45-84.73-23.17-11.68-3.19-23.37-6.35-35.86-9.74,18.68-4.99,36.53-9.78,54.39-14.54,22.7-6.05,45.39-12.11,68.1-18.13,14.21-3.77,21.45-16.3,17.64-30.56-7.49-28.09-14.97-56.18-22.45-84.28-4.56-17.16-9.11-34.32-13.65-51.49-.18-.67-.23-1.38-.41-2.57Z"/>
    </g>
  </g>
</svg>