<?xml version="1.0" encoding="UTF-8"?>
<svg id="Layer_2" data-name="Layer 2" xmlns="http://www.w3.org/2000/svg" viewBox="0 0 251.96 215.98">
  <g id="Layer_2-2" data-name="Layer 2">
    <g id="Layer_1-2" data-name="Layer 1-2">
      <g>
        <path d="M16.1,173.51C-24.94,110.07,16.82,27.93,92.3,23.9c37.98-32.78,90.62-30.4,125.24-1.62,33.89,28.18,47.81,82.07,18.34,127.35,3.67,10.52,7.4,21.22,11.12,31.93,2.54,7.29,.35,10.4-7.34,10.4h-80.18c-14.22,12.27-30.44,20.1-48.96,22.82-5.05,.74-10.19,1.11-15.3,1.13-27.74,.11-55.48,.06-83.23,.05-7.35,0-9.58-3.24-7.12-10.3,3.73-10.71,7.47-21.42,11.22-32.15h.01Zm2.18,30.27c1.37,.08,2.34,.18,3.3,.18,24.99,0,49.97,.15,74.96-.03,42.73-.3,77.96-32.16,82.85-74.68,6.28-54.64-41.67-100.77-96.03-92.38C22.91,46.2-7.79,114.98,25.86,166.01c2.73,4.14,3.17,7.63,1.42,12.16-3.23,8.34-5.96,16.88-8.99,25.61h-.01ZM111.53,24.95c35.51,7.57,60.95,27.1,73.88,60.67,12.94,33.56,7.06,65.1-13.98,94.07h62.23c-3.18-9.07-6.13-17.8-9.33-26.43-1.42-3.83-1.12-6.94,1.26-10.48,12.15-18.07,16.77-38.08,13.37-59.56C231.03,33.05,182.16,1.73,133.11,15.17c-7.53,2.06-14.73,5.05-21.58,9.79h0Z"/>
        <path d="M42.02,119.96c6.74,10.11,13.38,20.06,20.01,30.02,.69,1.04,1.44,2.05,1.99,3.16,1.45,2.95,.56,6.31-2.11,7.87-2.9,1.69-5.6,1.19-7.7-1.35-1.58-1.91-2.86-4.09-4.24-6.16-6.44-9.65-12.82-19.34-19.34-28.93-2.2-3.23-2.13-6.06,.04-9.28,7.49-11.05,14.82-22.2,22.25-33.29,2.72-4.06,5.9-5.09,9.07-3.06,3.22,2.06,3.57,5.71,.84,9.83-6.83,10.29-13.7,20.55-20.8,31.19h0Z"/>
        <path d="M147.58,119.97c-6.87-10.32-13.57-20.37-20.26-30.44-.69-1.04-1.52-2.04-1.95-3.18-1.12-3.05-.45-5.73,2.41-7.47,2.71-1.65,5.27-1.08,7.45,1.16,.6,.62,1.07,1.38,1.55,2.1,7.34,10.99,14.62,22.03,22.05,32.96,2.25,3.32,2.34,6.27,.07,9.62-7.5,11.04-14.84,22.19-22.27,33.27-2.68,4-5.96,5.03-9.09,2.97-3.1-2.04-3.49-5.64-.91-9.52,6.89-10.39,13.81-20.75,20.95-31.46h0Z"/>
        <path d="M112.7,84.55c-.21,.77-.5,2.11-.93,3.4-7.54,22.71-15.1,45.41-22.65,68.11-.08,.24-.17,.47-.26,.7-1.51,4.12-4.58,6.01-7.91,4.87-3.49-1.19-4.89-4.42-3.51-8.61,3.34-10.18,6.79-20.32,10.19-30.48,4.26-12.76,8.51-25.52,12.77-38.28,.39-1.18,.74-2.42,1.4-3.44,1.49-2.33,3.73-3.37,6.44-2.62,2.82,.78,4.37,2.75,4.45,6.35h0Z"/>
      </g>
    </g>
  </g>
</svg>