<?xml version="1.0" encoding="UTF-8"?>
<svg id="Layer_2" data-name="Layer 2" xmlns="http://www.w3.org/2000/svg" viewBox="0 0 256.08 220.08">
  <g id="Layer_1-2" data-name="Layer 1">
    <g>
      <path d="M56.93,218.36c-14.54,0-29.09,.02-43.63-.03-1.35,0-2.74-.3-4.03-.72-2.26-.74-3.69-3.67-2.91-6.13,1.92-6.09,3.94-12.16,5.98-18.21,1.71-5.06,3.42-10.13,5.33-15.12,.67-1.75,.31-2.97-.6-4.45-5.78-9.31-9.86-19.3-12.33-30-1.97-8.55-2.59-17.18-2.28-25.89,.26-7.23,1.51-14.33,3.47-21.31,1.97-7.04,4.56-13.85,8.25-20.14,2.88-4.91,6.07-9.68,9.51-14.22,2.6-3.43,5.71-6.49,8.76-9.55,5.22-5.23,11.19-9.5,17.55-13.23,6.5-3.82,13.35-6.91,20.62-8.89,5.08-1.38,10.27-2.36,15.45-3.32,2.55-.47,5.18-.53,7.78-.71,3.06-.21,6.12-.46,9.18-.48,1.84-.02,3.69,.36,5.54,.56,.16,.02,.31,.12,.46,.1,3.44-.42,6.59,.95,9.77,1.8,7.62,2.05,15.09,4.55,22.21,8.02,7.19,3.5,13.97,7.61,19.94,12.94,3.23,2.88,6.62,5.68,9.36,8.99,3.56,4.3,6.76,8.93,9.72,13.66,4.58,7.32,8.02,15.22,10.35,23.54,1.38,4.91,2.6,9.92,3.27,14.96,.72,5.44,.97,10.98,.94,16.47-.03,6.65-1.24,13.19-3.01,19.61-1.92,6.96-4.47,13.69-7.96,19.99-2.8,5.05-5.68,10.14-9.18,14.71-3.19,4.17-7.22,7.7-10.94,11.45-5.98,6.04-12.97,10.66-20.43,14.67-7.21,3.88-14.79,6.75-22.76,8.45-4.47,.95-9.04,1.76-13.6,1.98-8.55,.42-17.12,.43-25.69,.5-8.03,.07-16.06,.02-24.09,.02Zm70.39-59.6c-.47,3.19,3.11,5.72,5.72,5.72,2.84,0,4.59-1.71,6-3.8,7.5-11.17,14.95-22.37,22.41-33.56,2.14-3.2,2.18-6.45,.08-9.56-2.67-3.95-5.42-7.86-8.07-11.83-4.28-6.41-8.45-12.88-12.77-19.25-1.32-1.95-2.8-3.91-4.6-5.37-1.98-1.61-5.35-.89-7.35,1.03-1.75,1.68-2.28,4.76-.85,7.18,1.99,3.36,4.22,6.58,6.39,9.83,4.98,7.49,9.99,14.96,15,22.43,.37,.56,.44,.99,.04,1.59-6.32,9.42-12.63,18.84-18.92,28.29-1.49,2.23-3.27,4.37-3.09,7.32Zm-59.95-72.75c-.3-.96-.4-2.03-.92-2.85-2.47-3.85-7.61-4.08-10.57,.3-7.71,11.41-15.33,22.87-22.98,34.32-.95,1.43-1.52,2.95-1.52,4.73,0,2.33,1.25,4.05,2.45,5.84,7.43,11.07,14.85,22.16,22.29,33.23,1.83,2.73,4.82,3.63,7.51,2.36,3.81-1.81,4.8-5.96,2.32-9.67-6.94-10.37-13.86-20.75-20.81-31.12-.39-.58-.35-1.02,.03-1.59,6.34-9.45,12.69-18.9,18.99-28.38,1.44-2.16,3.16-4.26,3.21-7.19Zm18.3,78.47c.15-.03,.57-.11,.98-.21,2.86-.69,4.1-2.97,4.91-5.41,5.33-15.87,10.59-31.76,15.84-47.65,2.62-7.93,5.23-15.86,7.69-23.83,.61-1.98-.42-4.66-2.13-5.84-3.76-2.59-8.16-1.1-9.62,3.24-5.51,16.38-11.03,32.77-16.51,49.16-2.49,7.44-5.04,14.86-7.28,22.37-1.39,4.65,1.22,7.89,6.11,8.18Z"/>
      <path d="M169.06,194.43c1.32-1.28,2.34-2.33,3.43-3.31,4.35-3.95,7.9-8.52,11-13.52,4.85-7.82,8.91-15.97,11.72-24.74,1.7-5.3,3.17-10.67,3.53-16.23,.41-6.46,.83-12.95,.65-19.41-.34-12.14-3.34-23.75-8.1-34.92-2.68-6.28-5.77-12.34-9.75-17.9-2.44-3.41-5.02-6.75-7.8-9.89-2.73-3.09-5.64-6.07-8.76-8.76-4.78-4.12-9.89-7.82-15.41-10.94-7.08-4-14.53-7.09-22.31-9.42-3.13-.94-6.36-1.59-9.44-2.67-3.09-1.09-6.25-.89-9.4-1.16-2.28-.19-4.56-.44-7.09-.69,1.87-1.25,3.6-2.49,5.41-3.61,8.22-5.11,16.92-9.08,26.32-11.55,5.21-1.37,10.44-2.52,15.81-2.81,4.72-.26,9.46-.64,14.17-.43,8.2,.36,16.32,1.66,24.1,4.36,5.41,1.88,10.76,4.04,15.91,6.54,6.03,2.93,11.52,6.79,16.72,11.06,8.72,7.17,15.73,15.72,21.45,25.41,3.43,5.82,6.16,11.97,8.28,18.36,1.86,5.6,3.14,11.35,3.99,17.22,.89,6.08,1.13,12.18,.85,18.27-.34,7.49-1.62,14.86-3.77,22.08-1.9,6.35-4.34,12.48-7.46,18.32-1.32,2.48-2.87,4.85-4.25,7.3-.23,.41-.35,1.05-.2,1.47,2.42,7.01,4.9,13.99,7.34,20.99,1.43,4.13,2.91,8.24,4.14,12.43,.4,1.36,.38,2.98,.09,4.39-.49,2.39-2.58,3.09-4.66,3.49-1.31,.25-2.68,.26-4.02,.26-23.54,.01-47.07,.01-70.61,.01h-1.88Z"/>
    </g>
  </g>
</svg>